{
    "asset" : {
        "generator" : "Khronos glTF Blender I/O v3.2.43",
        "version" : "2.0"
    },
    "scene" : 0,
    "scenes" : [
        {
            "name" : "Scene",
            "nodes" : [
                2
            ]
        }
    ],
    "nodes" : [
        {
            "mesh" : 0,
            "name" : "Object_2"
        },
        {
            "children" : [
                0
            ],
            "name" : "Portal.obj.cleaner.materialmerger.gles"
        },
        {
            "children" : [
                1
            ],
            "name" : "Sketchfab_model",
            "rotation" : [
                -0.7071068286895752,
                0,
                0,
                0.7071067094802856
            ]
        }
    ],
    "materials" : [
        {
            "doubleSided" : true,
            "emissiveFactor" : [
                1,
                1,
                1
            ],
            "emissiveTexture" : {
                "index" : 0
            },
            "name" : "aiStandardSurface10SG",
            "pbrMetallicRoughness" : {
                "baseColorTexture" : {
                    "index" : 1
                },
                "metallicFactor" : 0,
                "roughnessFactor" : 0.6000000238418579
            }
        }
    ],
    "meshes" : [
        {
            "name" : "Object_0",
            "primitives" : [
                {
                    "attributes" : {
                        "POSITION" : 0,
                        "NORMAL" : 1,
                        "TEXCOORD_0" : 2
                    },
                    "indices" : 3,
                    "material" : 0
                }
            ]
        }
    ],
    "textures" : [
        {
            "sampler" : 0,
            "source" : 0
        },
        {
            "sampler" : 0,
            "source" : 0
        }
    ],
    "images" : [
        {
            "mimeType" : "image/png",
            "name" : "aiStandardSurface10SG_baseColor",
            "uri" : "textures1/aiStandardSurface10SG_baseColor.png"
        }
    ],
    "accessors" : [
        {
            "bufferView" : 0,
            "componentType" : 5126,
            "count" : 1341,
            "max" : [
                0.24188312888145447,
                8.94862174987793,
                9.072442054748535
            ],
            "min" : [
                -0.35107290744781494,
                -8.9505033493042,
                -8.829176902770996
            ],
            "type" : "VEC3"
        },
        {
            "bufferView" : 1,
            "componentType" : 5126,
            "count" : 1341,
            "type" : "VEC3"
        },
        {
            "bufferView" : 2,
            "componentType" : 5126,
            "count" : 1341,
            "type" : "VEC2"
        },
        {
            "bufferView" : 3,
            "componentType" : 5123,
            "count" : 7560,
            "type" : "SCALAR"
        }
    ],
    "bufferViews" : [
        {
            "buffer" : 0,
            "byteLength" : 16092,
            "byteOffset" : 0
        },
        {
            "buffer" : 0,
            "byteLength" : 16092,
            "byteOffset" : 16092
        },
        {
            "buffer" : 0,
            "byteLength" : 10728,
            "byteOffset" : 32184
        },
        {
            "buffer" : 0,
            "byteLength" : 15120,
            "byteOffset" : 42912
        }
    ],
    "samplers" : [
        {
            "magFilter" : 9729,
            "minFilter" : 9987
        }
    ],
    "buffers" : [
        {
            "byteLength" : 58032,
            "uri" : "scene1.bin"
        }
    ]
}
